<?xml version="1.0" encoding="utf-8" ?>
<svg xmlns="http://www.w3.org/2000/svg" xmlns:xlink="http://www.w3.org/1999/xlink" width="200" height="200">
	<path fill="#FEFEFE" d="M86.0114 0L113.514 0C113.555 0.0251795 113.596 0.0510764 113.638 0.0755384C115.568 1.20268 121.81 1.94349 124.377 2.59004C126.517 3.1291 128.648 3.93075 130.74 4.64017C153.768 12.4474 172.785 26.4552 185.611 47.2861C189.104 52.9579 192.363 59.25 194.837 65.4349C195.858 67.9869 199.064 78.9667 200 80.2481L200 119.244C199.976 119.287 199.951 119.329 199.928 119.372C198.616 121.752 197.838 126.098 196.954 128.83C195.455 133.335 193.702 137.752 191.704 142.059C177.881 171.682 154.241 189.199 123.451 198.665C122.422 198.981 120.326 199.336 119.509 200L80.769 200C79.0337 199.145 77.0542 198.633 75.2142 198.025C43.0504 187.399 20.0555 169.451 7.08435 137.523C5.16646 132.752 3.53903 127.87 2.21099 122.904C1.51435 120.347 1.28826 116.67 0.0891921 114.407C0.0602716 114.352 0.0297307 114.299 0 114.245L0 86.4935C0.864432 85.207 1.93343 79.0396 2.52469 76.9646C12.0467 43.5475 31.1846 20.6984 63.3909 7.17507C67.1255 5.60694 71.0781 4.18437 74.9678 3.05441C77.5524 2.30357 83.915 1.22923 85.8841 0.077115C85.9269 0.0520562 85.9689 0.025705 86.0114 0Z"/>
	<path fill="#0D4978" d="M93.9833 9.8393C143.658 6.47821 186.634 44.0633 189.922 93.743C193.209 143.423 155.561 186.343 105.876 189.557C56.2956 192.764 13.4845 155.212 10.2038 105.636C6.92311 56.06 44.4124 13.1934 93.9833 9.8393Z"/>
	<path fill="#FEFEFE" d="M122.583 35.8585C122.948 35.8306 123.313 35.8094 123.678 35.7952C131.829 35.5137 139.756 38.4876 145.71 44.0604C151.926 49.849 155.031 57.57 155.345 65.9791C155.806 78.3453 155.449 90.8639 155.477 103.25L155.512 120.868C155.522 127.189 155.645 133.477 154.459 139.718C153.476 144.895 151.485 150.155 147.843 154.06C142.691 159.583 134.926 161.946 127.538 162.176C124.324 162.276 121.18 161.49 118.805 159.223C117.487 157.965 116.032 156.138 116.026 154.242C116.008 148.333 129.684 144.004 133.516 140.142C134.972 138.674 135.623 136.372 135.929 134.37C136.601 129.986 136.148 125.176 136.113 120.736L136.022 97.875L136.002 75.8742C136.002 71.6735 136.259 67.2634 135.818 63.096C135.47 59.8072 134.405 57.3337 131.774 55.231C129.391 53.3264 126.187 52.9545 123.226 53.295C119.472 53.7269 116.13 55.8274 114.594 59.3627C112.724 63.6686 113.51 73.2297 113.502 78.1746L113.459 108.252C113.455 113.399 113.753 118.778 113.357 123.9C113.287 124.794 113.178 126.116 112.584 126.816C111.876 127.65 110.607 127.898 109.574 127.988C107.297 128.188 95.3638 128.273 94.0958 127.123C93.1089 126.228 92.8179 124.325 92.7268 123.044C92.4838 119.63 92.7101 116.045 92.7308 112.616L92.8211 93.4455L92.9202 76.096C92.9327 70.786 92.6149 65.1985 93.7043 59.9749C94.7767 54.9766 97.0855 50.3272 100.42 46.4521C106.21 39.7429 113.879 36.5198 122.583 35.8585Z"/>
	<path fill="#FEFEFE" d="M59.8926 36.0545C59.9227 36.0518 59.9528 36.0486 59.983 36.0464C62.4812 35.8651 65.1117 36.7285 67.0046 38.3622C68.7391 39.8592 69.6695 41.8206 70.037 44.0565C70.4857 46.7868 70.3026 49.6891 70.298 52.4482L70.3045 64.8025L70.2552 109.505C70.2428 117.306 69.8003 125.352 70.428 133.118C70.7036 136.527 71.2906 141.096 74.0737 143.433C76.6126 145.566 80.8079 146.611 84.0713 146.302C89.0294 145.831 89.4826 141.627 92.1049 138.503C94.1636 136.05 97.3758 135.43 100.416 135.144C103.078 134.894 110.059 134.401 112.047 136.123C112.633 136.631 112.902 137.368 112.95 138.128C113.229 142.575 108.026 149.626 105.086 153.001C99.9402 158.483 93.1139 162.384 85.6475 163.554C77.7133 164.799 69.8188 163.021 63.3231 158.255C56.2002 153.03 53.04 146.235 51.7489 137.675C50.3584 128.455 50.8224 118.995 50.9457 109.708L51.0418 84.6024L51.0178 59.2699C51.0051 54.5597 50.7405 49.6882 51.1394 44.994C51.2992 43.1137 51.6102 41.5068 52.7624 39.9639C54.5154 37.6165 57.0646 36.4616 59.8926 36.0545Z"/>
</svg>
